<svg width="200" height="40" viewBox="0 0 200 40" fill="none" xmlns="http://www.w3.org/2000/svg">
<rect width="200" height="40" rx="2" fill="black"/>
<path d="M81.0707 19C80.6928 16.9119 79.0224 15.679 76.9741 15.679C74.369 15.679 72.4798 17.6875 72.4798 20.9091C72.4798 24.1307 74.369 26.1392 76.9741 26.1392C79.0224 26.1392 80.6928 24.9062 81.0707 22.8182H79.8377C79.5394 24.2301 78.3263 24.9858 76.9741 24.9858C75.1246 24.9858 73.6729 23.554 73.6729 20.9091C73.6729 18.2642 75.1246 16.8324 76.9741 16.8324C78.3263 16.8324 79.5394 17.5881 79.8377 19H81.0707ZM86.0062 26.1591C88.0744 26.1591 89.4664 24.5881 89.4664 22.2216C89.4664 19.8352 88.0744 18.2642 86.0062 18.2642C83.938 18.2642 82.546 19.8352 82.546 22.2216C82.546 24.5881 83.938 26.1591 86.0062 26.1591ZM86.0062 25.1051C84.4352 25.1051 83.7193 23.7528 83.7193 22.2216C83.7193 20.6903 84.4352 19.3182 86.0062 19.3182C87.5772 19.3182 88.2931 20.6903 88.2931 22.2216C88.2931 23.7528 87.5772 25.1051 86.0062 25.1051ZM90.7802 24.0511C90.82 25.304 92.0181 26.1591 93.6438 26.1591C95.3143 26.1591 96.5273 25.2642 96.5273 23.8722C96.5273 22.9176 95.9556 22.142 95.0955 22.0824V22.0028C95.8214 21.7791 96.3683 21.2521 96.3683 20.392C96.3683 19.1839 95.3342 18.2642 93.7234 18.2642C92.1325 18.2642 90.9989 19.1392 90.9592 20.3722H92.1921C92.2269 19.7408 92.8881 19.2983 93.783 19.2983C94.6729 19.2983 95.1751 19.7507 95.1751 20.4318C95.1751 21.0682 94.7376 21.5455 93.8029 21.5455H92.4904V22.5994H93.8029C94.7376 22.5994 95.3342 23.1115 95.3342 23.8722C95.3342 24.7422 94.5636 25.1051 93.6239 25.1051C92.7042 25.1051 92.0877 24.7422 92.033 24.0511H90.7802ZM97.3601 28.1875H98.5334V26H104.181V28.1875H105.354V24.9062H104.181V18.3636H99.3288L99.0703 21.3864C98.8864 23.5241 98.6129 24.2599 97.9964 24.9062H97.3601V28.1875ZM99.3288 24.9062C99.8658 24.2003 100.06 22.9822 100.224 21.3864L100.423 19.4574H103.008V24.9062H99.3288ZM109.159 26.179C110.491 26.179 111.187 25.4631 111.426 24.9659H111.486V26H112.659V20.9688C112.659 18.5426 110.809 18.2642 109.835 18.2642C108.682 18.2642 107.369 18.6619 106.773 20.054L107.886 20.4517C108.145 19.8949 108.756 19.2983 109.875 19.2983C110.954 19.2983 111.486 19.87 111.486 20.8494V20.8892C111.486 21.456 110.909 21.4062 109.517 21.5852C108.1 21.7692 106.554 22.0824 106.554 23.8324C106.554 25.3239 107.707 26.179 109.159 26.179ZM109.338 25.125C108.403 25.125 107.727 24.7074 107.727 23.892C107.727 22.9972 108.542 22.7188 109.457 22.5994C109.954 22.5398 111.287 22.4006 111.486 22.1619V23.2358C111.486 24.1903 110.73 25.125 109.338 25.125ZM113.761 19.4574H116.287V26H117.46V19.4574H119.966V18.3636H113.761V19.4574ZM122.851 21.1278V18.3636H121.677V26H124.879C126.669 26 127.643 24.9062 127.643 23.5341C127.643 22.142 126.669 21.1278 124.879 21.1278H122.851ZM122.851 22.2216H124.879C125.809 22.2216 126.47 22.7884 126.47 23.5938C126.47 24.3643 125.809 24.9062 124.879 24.9062H122.851V22.2216Z" fill="white"/>
</svg>
